<svg width="726" height="384" viewBox="0 0 726 384" fill="none" xmlns="http://www.w3.org/2000/svg">
<path d="M208.593 4.00001C208.593 1.79087 210.383 0 212.593 0H721.333C723.542 0 725.333 1.79086 725.333 4V380C725.333 382.209 723.542 384 721.333 384H212.593C210.383 384 208.593 382.209 208.593 380V4.00001Z" fill="#24565C"/>
<path d="M0 4.00001C0 1.79087 1.79086 0 4 0H213V384H4C1.79086 384 0 382.209 0 380V4.00001Z" fill="white"/>
<path fill-rule="evenodd" clip-rule="evenodd" d="M176.508 66.3701H208.592V78.222H181.417L149.417 110.222H92.4443V98.3701H144.508L176.508 66.3701ZM198.828 93.6294H208.592V105.481H204.135L174.505 138.666H41.4814V126.815H169.199L198.828 93.6294ZM212.783 152.338L199.195 165.926H139.852V154.074H194.286L204.402 143.958L212.783 152.338ZM71.111 197.926V186.074H208.592V197.926H71.111ZM139.852 220.444H199.659L213.29 238.164L203.895 245.391L193.823 232.296H139.852V220.444ZM41.4814 246.518H168.38L203.936 282.074H208.592V293.926H199.027L163.471 258.37H41.4814V246.518ZM92.4443 271.407H147.047L181.417 305.778H208.592V317.629H176.508L142.138 283.259H92.4443V271.407Z" fill="#24565C"/>
<path d="M80.5924 111.908C84.7959 111.908 88.2035 108.5 88.2035 104.297C88.2035 100.093 84.7959 96.6856 80.5924 96.6856C76.3889 96.6856 72.9813 100.093 72.9813 104.297C72.9813 108.5 76.3889 111.908 80.5924 111.908ZM94.3146 104.297C94.3146 111.875 88.171 118.019 80.5924 118.019C73.0138 118.019 66.8702 111.875 66.8702 104.297C66.8702 96.7181 73.0138 90.5745 80.5924 90.5745C88.171 90.5745 94.3146 96.7181 94.3146 104.297Z" fill="#24565C" stroke="black"/>
<path d="M80.5924 287.314C84.7959 287.314 88.2035 283.906 88.2035 279.703C88.2035 275.499 84.7959 272.092 80.5924 272.092C76.3889 272.092 72.9813 275.499 72.9813 279.703C72.9813 283.906 76.3889 287.314 80.5924 287.314ZM94.3146 279.703C94.3146 287.282 88.171 293.425 80.5924 293.425C73.0138 293.425 66.8702 287.282 66.8702 279.703C66.8702 272.124 73.0138 265.981 80.5924 265.981C88.171 265.981 94.3146 272.124 94.3146 279.703Z" fill="#24565C" stroke="black"/>
<path d="M30.8147 137.982C35.0182 137.982 38.4259 134.575 38.4259 130.371C38.4259 126.168 35.0182 122.76 30.8147 122.76C26.6112 122.76 23.2036 126.168 23.2036 130.371C23.2036 134.575 26.6112 137.982 30.8147 137.982ZM44.537 130.371C44.537 137.95 38.3933 144.093 30.8147 144.093C23.2362 144.093 17.0925 137.95 17.0925 130.371C17.0925 122.793 23.2362 116.649 30.8147 116.649C38.3933 116.649 44.537 122.793 44.537 130.371Z" fill="#24565C" stroke="black"/>
<path d="M132.741 166.425C136.944 166.425 140.352 163.017 140.352 158.814C140.352 154.61 136.944 151.202 132.741 151.202C128.537 151.202 125.13 154.61 125.13 158.814C125.13 163.017 128.537 166.425 132.741 166.425ZM146.463 158.814C146.463 166.392 140.319 172.536 132.741 172.536C125.162 172.536 119.019 166.392 119.019 158.814C119.019 151.235 125.162 145.091 132.741 145.091C140.319 145.091 146.463 151.235 146.463 158.814Z" fill="#24565C" stroke="black"/>
<path d="M132.741 232.797C136.944 232.797 140.352 229.39 140.352 225.186C140.352 220.983 136.944 217.575 132.741 217.575C128.537 217.575 125.13 220.983 125.13 225.186C125.13 229.39 128.537 232.797 132.741 232.797ZM146.463 225.186C146.463 232.765 140.319 238.908 132.741 238.908C125.162 238.908 119.019 232.765 119.019 225.186C119.019 217.608 125.162 211.464 132.741 211.464C140.319 211.464 146.463 217.608 146.463 225.186Z" fill="#24565C" stroke="black"/>
<path d="M63.9999 199.612C68.2034 199.612 71.611 196.205 71.611 192.001C71.611 187.798 68.2034 184.39 63.9999 184.39C59.7964 184.39 56.3888 187.798 56.3888 192.001C56.3888 196.205 59.7964 199.612 63.9999 199.612ZM77.7221 192.001C77.7221 199.58 71.5784 205.723 63.9999 205.723C56.4213 205.723 50.2776 199.58 50.2776 192.001C50.2776 184.422 56.4213 178.279 63.9999 178.279C71.5784 178.279 77.7221 184.422 77.7221 192.001Z" fill="#24565C" stroke="black"/>
<path d="M33.185 261.24C37.3885 261.24 40.7961 257.832 40.7961 253.628C40.7961 249.425 37.3885 246.017 33.185 246.017C28.9815 246.017 25.5739 249.425 25.5739 253.628C25.5739 257.832 28.9815 261.24 33.185 261.24ZM46.9072 253.628C46.9072 261.207 40.7636 267.351 33.185 267.351C25.6064 267.351 19.4628 261.207 19.4628 253.628C19.4628 246.05 25.6064 239.906 33.185 239.906C40.7636 239.906 46.9072 246.05 46.9072 253.628Z" fill="#24565C" stroke="black"/>
<path d="M593.455 280.025H657.702V322.37H564.982C548.921 307.281 536.753 288.178 528.479 265.059C520.204 241.94 516.067 218.212 516.067 193.877C516.067 169.297 520.691 145.692 529.939 123.059C539.186 100.427 552.936 81.6886 571.188 66.8438H657.702V110.648H593.455C586.885 118.192 581.166 130.36 576.299 147.152C571.675 163.944 569.363 180.005 569.363 195.337C569.363 210.668 571.675 226.73 576.299 243.522C581.166 260.313 586.885 272.481 593.455 280.025Z" fill="#F2F3F5"/>
<path d="M409.824 66.8438H497.433V110.648H427.345L426.25 112.838L484.656 219.429C496.581 240.845 502.543 257.15 502.543 268.344C502.543 292.923 494.391 310.932 478.086 322.37H381.351V280.025H456.913L458.009 277.835L392.302 159.928C382.811 142.893 378.065 129.022 378.065 118.314C378.065 93.0047 388.652 75.848 409.824 66.8438Z" fill="#F2F3F5"/>
<path d="M207.151 322.37V66.8438H311.187C323.112 71.2242 333.698 78.89 342.945 89.8411C352.193 100.792 356.817 114.055 356.817 129.63C356.817 157.13 347.812 176.355 329.804 187.306V188.766C352.193 201.177 363.387 220.646 363.387 247.172C363.387 277.592 347.934 302.658 317.028 322.37H207.151ZM256.796 172.339H292.935C303.643 165.769 308.997 155.791 308.997 142.406C308.997 129.022 304.008 118.436 294.03 110.648H256.796V172.339ZM256.796 280.025H294.395C298.776 276.862 302.669 271.873 306.076 265.059C309.727 258.245 311.552 251.431 311.552 244.617C311.552 237.803 310.092 231.597 307.172 226C304.251 220.403 300.601 216.266 296.22 213.589H256.796V280.025Z" fill="#F2F3F5"/>
<path fill-rule="evenodd" clip-rule="evenodd" d="M721.333 1H4C2.34315 1 1 2.34315 1 4.00001V380C1 381.657 2.34313 383 3.99998 383H721.333C722.99 383 724.333 381.657 724.333 380V4C724.333 2.34314 722.99 1 721.333 1ZM4 0C1.79086 0 0 1.79087 0 4.00001V380C0 382.209 1.79084 384 3.99998 384H721.333C723.542 384 725.333 382.209 725.333 380V4C725.333 1.79086 723.542 0 721.333 0H4Z" fill="white"/>
</svg>
